<svg width="600" height="350" xmlns="http://www.w3.org/2000/svg">
    <ellipse cx="220" cy="300" rx="45" ry="15"
    fill="lightgrey" />
    <ellipse cx="420" cy="300" rx="45" ry="15"
    fill="lightgrey" />
    <circle cx="218" cy="225" r="75"  fill="orange" />
    <circle cx="422" cy="225" r="75"  fill="rgb(243, 214, 25)" />
    <circle cx="208" cy="205" r="30"  fill="white" />
    <circle cx="248" cy="205" r="30"  fill="white" />
    <circle cx="393" cy="205" r="30"  fill="white" />
    <circle cx="433" cy="205" r="30"  fill="white" />
    <circle cx="426" cy="205" r="7"  fill="black" />
    <circle cx="386" cy="205" r="7"  fill="black" />
    <circle cx="255" cy="205" r="7"  fill="black" />
    <circle cx="215" cy="205" r="7"  fill="black" />
    <ellipse cx="413" cy="263" rx="6" ry="13"
    fill="red" />
    <circle cx="233" cy="235" r="9"  fill="black" />
    <ellipse cx="220" cy="260" rx="13" ry="6"
    fill="red" />
    <polygon points="167,150 195,158 165,175" stroke="orange" stroke-width="4px" fill="black" />
    <polygon points="257,142 265,165 235,155" stroke="orange" stroke-width="4px" fill="black" />
    <ellipse cx="110" cy="205" rx="45" ry="20"
    fill="orange"  style="transform: skewY(15deg)"/>
    <polygon points="69,220 83,240 93,213"  fill="white" />



</svg>